# xmcd
#
# Track frame offsets:
#	150
#	20525
#	42215
#	61017
#
# Disc length: 1139 seconds
#
# Revision: 1
# Processed by: cddbd v1.4PL0 Copyright (c) Steve Scherf et al.
# Submitted via: EasyCDDAExtractor 5.1.0
#
DISCID=27047104
DTITLE=Adam Lamar
DYEAR=1998
DGENRE=Country
TTITLE0=Shut the Door
TTITLE1=Thomas
TTITLE2=Make Your Bed
TTITLE3=Mexia
EXTD=
EXTT0=
EXTT1=
EXTT2=
EXTT3=
PLAYORDER=
